<?xml version="1.0" encoding="UTF-8"?>
<svg version="1.1" xmlns="http://www.w3.org/2000/svg" width="32" height="32">
<path d="M0 0 C1.8125 0.5 1.8125 0.5 4 2 C5.26152609 4.5863924 6.15643045 7.25200829 7 10 C8.65 9.67 10.3 9.34 12 9 C12.33 6.69 12.66 4.38 13 2 C13.66 2 14.32 2 15 2 C15 3.98 15 5.96 15 8 C15.61875 7.814375 16.2375 7.62875 16.875 7.4375 C19 7 19 7 21 8 C21 8.66 21 9.32 21 10 C18.69 10.33 16.38 10.66 14 11 C14 12.65 14 14.3 14 16 C15.11375 16.4125 16.2275 16.825 17.375 17.25 C19.99320695 18.35546516 20.83493089 18.74880787 22.4375 21.1875 C22.623125 21.785625 22.80875 22.38375 23 23 C22 24 22 24 19.4375 24.0625 C18.633125 24.041875 17.82875 24.02125 17 24 C17 24.66 17 25.32 17 26 C12.25 25.25 12.25 25.25 10 23 C10 22.01 10 21.02 10 20 C9.34 20 8.68 20 8 20 C7.690625 20.639375 7.38125 21.27875 7.0625 21.9375 C6 24 6 24 5 25 C2.66702567 25.04092937 0.33294775 25.04241723 -2 25 C-2.49230769 18.6 -2.49230769 18.6 0 15.5625 C0.66 15.046875 1.32 14.53125 2 14 C1.175 13.236875 0.35 12.47375 -0.5 11.6875 C-3 9 -3 9 -3 6 C-2.34 6 -1.68 6 -1 6 C-1.0309375 4.7934375 -1.0309375 4.7934375 -1.0625 3.5625 C-1 1 -1 1 0 0 Z " fill="#FF674C" transform="translate(6,3)"/>
</svg>
